<svg xmlns:xlink="http://www.w3.org/1999/xlink" xmlns="http://www.w3.org/2000/svg" width="94" height="38" viewBox="0 0 94 38" fill="none">
<path fill-rule="evenodd" clip-rule="evenodd" d="M51.895 3.87012C50.5727 3.87012 49.5007 4.94212 49.5007 6.2643V7.23073C49.7725 6.91084 50.1142 6.66955 50.5938 6.58965C50.9236 6.53474 51.1988 6.57744 51.4469 6.66893C51.4701 6.02818 51.9969 5.51612 52.6432 5.51612H63.3172C63.9783 5.51612 64.5143 6.05192 64.5143 6.71321V27.4628C64.5143 28.1241 63.9783 28.6599 63.3172 28.6599H52.6432C51.9821 28.6599 51.4461 28.1241 51.4461 27.4628V12.1348L49.5007 15.377V28.0114C49.5007 29.3336 50.5727 30.4056 51.895 30.4056H55.9289V30.7934C55.9289 30.8374 55.9646 30.8732 56.0087 30.8732H56.3217V31.1787H56.0737C56.0287 31.1787 55.9925 31.2158 55.9943 31.2606C56.0045 31.5295 56.0414 32.3926 56.1097 32.8746C56.1774 33.3524 56.3388 33.8999 56.3917 34.0725C56.3946 34.0816 56.3989 34.0899 56.4044 34.0971C56.4189 34.1163 56.4419 34.1278 56.4671 34.1278H59.4717C59.4848 34.1278 59.4973 34.1246 59.5084 34.1188C59.5252 34.11 59.5385 34.0953 59.5453 34.0768C59.5792 33.9829 59.6531 33.7682 59.7213 33.5043C59.761 33.3504 59.7989 33.1793 59.8257 33.0056C59.9007 32.5196 59.9601 31.5528 59.9769 31.2629C59.9795 31.2169 59.9431 31.1787 59.8974 31.1787H59.6511V30.8732H59.9641C59.9821 30.8732 59.9986 30.8674 60.012 30.8572C60.0222 30.8496 60.0306 30.8395 60.0362 30.8278C60.0411 30.8173 60.0439 30.8056 60.0439 30.7934V30.4056H64.0653C65.3877 30.4056 66.4596 29.3336 66.4596 28.0114V23.0633C66.7095 23.18 67.3839 23.3851 67.4509 23.4039C67.5289 23.4257 67.5382 23.6065 67.5382 23.7811C67.5382 23.9557 67.6847 24.0305 67.8125 24.0305C67.9403 24.0305 68.0525 23.8871 68.0837 23.8092C68.1023 23.7628 68.1695 23.7152 68.2327 23.6706L68.2351 23.6689C68.2555 23.6544 68.2756 23.6402 68.2933 23.6264C68.3119 23.612 68.328 23.598 68.3394 23.5847C68.3843 23.5323 68.4766 23.4839 68.5171 23.4662C68.56 23.4678 68.647 23.4591 68.7583 23.4454C68.8411 23.4352 68.9373 23.4222 69.0389 23.4084C69.3558 23.3656 69.724 23.3157 69.895 23.3228C70.1942 23.3353 70.6432 23.8154 70.693 23.9214C70.7429 24.0274 70.905 24.2581 71.0547 24.3828C71.2043 24.5075 71.4849 25.1122 71.5036 25.2619C71.5223 25.4115 71.6844 25.7981 71.7966 25.9041C71.9088 26.0101 72.1021 26.4714 72.1208 26.5961C72.1395 26.7208 72.2579 27.0263 72.3889 27.1884C72.5198 27.3505 72.8378 27.7496 72.8752 27.9304C72.9127 28.1112 73.1932 28.5102 73.3241 28.5913C73.455 28.6723 73.7481 29.0527 73.8105 29.2148C73.8728 29.3769 74.303 29.963 74.3404 30.0128C74.3778 30.0627 75.525 31.9706 75.6746 32.2574C75.8243 32.5442 76.56 32.9557 76.6598 32.9993C76.7595 33.043 76.8343 33.0617 77.0401 32.9619C77.2459 32.8621 78.9292 31.8147 79.0103 31.7523C79.0331 31.7349 79.0498 31.7107 79.062 31.6848C79.0845 31.6368 79.0913 31.5825 79.0913 31.5528C79.0913 31.5382 79.0901 31.4853 79.086 31.3744C79.0831 31.2965 79.0788 31.1899 79.0726 31.0478C79.0577 30.7036 78.8502 30.2685 78.7484 30.0939C78.3889 29.5223 77.6461 28.3357 77.5513 28.1611C77.4329 27.9429 77.1274 27.5251 76.8655 27.2508C76.6036 26.9765 75.5125 25.3429 75.3255 24.9377C75.1385 24.5324 74.3466 22.9176 74.1534 22.6807C73.9987 22.4911 73.7523 21.9782 73.6483 21.7454C73.6379 21.6789 73.566 21.5297 73.3616 21.4649C73.1986 21.4187 73.0074 21.1143 72.8411 20.771L72.8388 20.7762C72.4851 20.618 71.9352 20.369 71.4348 20.1357C70.9383 19.9041 70.4806 19.6835 70.3187 19.5843C69.9359 19.3497 69.3999 18.9973 69.2429 18.3965C69.1787 18.1509 69.2038 17.8893 69.2561 17.6682C69.2859 17.5426 69.3252 17.4266 69.3651 17.3293L66.4596 15.8989V6.2643C66.4596 4.94212 65.3877 3.87012 64.0653 3.87012H51.895ZM66.8409 21.0469L66.4596 20.8327V20.5581L66.8638 20.7852L67.389 20.6013L67.7259 19.8889L67.5185 19.3573L66.4596 18.845V18.5791L67.7074 19.1827L67.9864 19.898L67.5627 20.7942L66.8409 21.0469ZM58.2115 6.86284C58.145 6.90609 58.0655 6.93142 57.9802 6.93142C57.8908 6.93142 57.8078 6.90376 57.7395 6.85662C57.6288 6.78023 57.5562 6.65242 57.5562 6.50746C57.5562 6.37964 57.6128 6.26507 57.7023 6.18715C57.7768 6.12245 57.8739 6.08349 57.9802 6.08349C58.2143 6.08349 58.4041 6.27327 58.4041 6.50746C58.4041 6.65632 58.3275 6.78724 58.2115 6.86284ZM69.5805 17.4353L69.9262 17.6055C70.0882 17.6616 70.5559 17.805 71.1294 17.9297C71.8465 18.0856 72.6881 18.6467 73.1184 19.638C73.231 19.8976 73.3137 20.0969 73.3781 20.252L73.3791 20.2545C73.5595 20.6893 73.5949 20.7744 73.7419 20.8663C73.9015 20.9661 73.8665 21.0617 73.8291 21.097C73.8229 21.1406 73.7668 21.2005 73.5923 21.0908C73.374 20.9536 73.0248 20.7167 72.9625 20.4922C72.9002 20.2678 72.8191 20.0121 72.5073 19.956C72.527 20.0134 72.5501 20.0781 72.5762 20.1476C72.6115 20.2416 72.6521 20.3444 72.6964 20.4498C72.3603 20.2984 71.9325 20.1035 71.536 19.9187C71.0334 19.6843 70.5911 19.4705 70.4438 19.3802C70.0535 19.141 69.6043 18.8325 69.4745 18.3359C69.424 18.1426 69.4416 17.9241 69.4891 17.7234C69.5017 17.67 69.5163 17.6186 69.5318 17.5702C69.5474 17.522 69.5639 17.4767 69.5805 17.4353ZM70.0945 18.7309C70.2236 18.7309 70.3283 18.6262 70.3283 18.4971C70.3283 18.3679 70.2236 18.2633 70.0945 18.2633C69.9653 18.2633 69.8606 18.3679 69.8606 18.4971C69.8606 18.6262 69.9653 18.7309 70.0945 18.7309ZM75.6789 30.948C75.6789 31.0519 75.5947 31.1361 75.4908 31.1361C75.3869 31.1361 75.3026 31.0519 75.3026 30.948C75.3026 30.8441 75.3869 30.7598 75.4908 30.7598C75.5947 30.7598 75.6789 30.8441 75.6789 30.948ZM76.083 32.1306C76.187 32.1306 76.2712 32.0463 76.2712 31.9424C76.2712 31.8385 76.187 31.7543 76.083 31.7543C75.9792 31.7543 75.8949 31.8385 75.8949 31.9424C75.8949 32.0463 75.9792 32.1306 76.083 32.1306ZM72.7103 19.5414C72.7103 19.6483 72.6236 19.735 72.5167 19.735C72.4097 19.735 72.3231 19.6483 72.3231 19.5414C72.3231 19.4344 72.4097 19.3477 72.5167 19.3477C72.6236 19.3477 72.7103 19.4344 72.7103 19.5414ZM67.8058 23.8739C67.8728 23.8739 67.9271 23.8196 67.9271 23.7527C67.9271 23.6857 67.8728 23.6315 67.8058 23.6315C67.7389 23.6315 67.6846 23.6857 67.6846 23.7527C67.6846 23.8196 67.7389 23.8739 67.8058 23.8739ZM31.8961 7.77631C31.57 7.88087 31.4236 8.25994 31.5949 8.55657L38.9537 21.3024C38.7441 21.3307 38.5772 21.5006 38.5572 21.7165L38.3746 23.6967H37.555C36.7919 23.6967 36.1734 24.3151 36.1734 25.0781V32.7487C36.1734 33.5118 36.7919 34.1301 37.555 34.1301H46.4004C47.1635 34.1301 47.782 33.5118 47.782 32.7487V25.0781C47.782 24.3151 47.1635 23.6967 46.4004 23.6967H45.5924L45.3999 21.7143C45.3794 21.5023 45.2174 21.3356 45.0129 21.3037L52.3724 8.55657C52.5437 8.25994 52.3974 7.88087 52.0712 7.77631L50.8514 7.38524C50.6106 7.30785 50.3485 7.40905 50.2221 7.62809L45.7262 15.4151L45.6439 15.3894C45.6216 15.3823 45.5985 15.3808 45.5764 15.384C45.549 15.3879 45.523 15.3992 45.5013 15.4168C45.4969 15.4204 45.4926 15.4243 45.4885 15.4285C45.486 15.4311 45.4835 15.4338 45.4811 15.4367C45.4753 15.4436 45.47 15.4512 45.4653 15.4593L42.0941 21.2983H41.8732L38.5021 15.4593C38.4947 15.4465 38.4858 15.4351 38.4756 15.4253C38.4699 15.4198 38.4637 15.4147 38.4573 15.4102C38.4376 15.3963 38.4148 15.3873 38.3909 15.384C38.3795 15.3823 38.3678 15.3819 38.356 15.3829C38.3451 15.3839 38.3342 15.386 38.3235 15.3894L38.2411 15.4151L33.7453 7.62809C33.6188 7.40905 33.3567 7.30785 33.116 7.38524L31.8961 7.77631ZM40.4805 27.7164C40.4805 27.5894 40.5836 27.4863 40.7108 27.4863H43.2445C43.3155 27.4863 43.3791 27.5186 43.4213 27.5692C43.4547 27.6091 43.4748 27.6604 43.4748 27.7164V30.2543C43.4748 30.3814 43.3716 30.4844 43.2445 30.4844H40.7108C40.6577 30.4844 40.6088 30.4664 40.5698 30.4361C40.5154 30.3941 40.4805 30.3285 40.4805 30.2543V27.7164ZM17.3793 4.73708H48.9069C48.7654 5.02747 48.686 5.35369 48.686 5.69847V5.82019H17.2932L16.0599 25.6673H35.0892V33.2869C35.0892 33.625 35.242 33.9275 35.4823 34.129H27.3329C26.9933 34.129 26.718 33.8537 26.718 33.5141C26.718 33.1745 26.9933 32.8992 27.3329 32.8992H28.1528V27.2422H16.2205C15.466 27.2422 14.867 26.6073 14.911 25.8541L16.0698 5.97253C16.1102 5.27889 16.6845 4.73708 17.3793 4.73708Z" fill="#4C4C4C"/>
</svg>