<svg xmlns:xlink="http://www.w3.org/1999/xlink" xmlns="http://www.w3.org/2000/svg" width="85" height="38" viewBox="0 0 85 38" fill="none">
<path fill-rule="evenodd" clip-rule="evenodd" d="M24.3135 7.89166H24.3138C24.2546 6.76834 24.1946 5.74544 24.1434 4.91517C24.1071 4.3264 24.574 3.83155 25.1571 3.83155H29.7345C30.3298 3.83155 30.804 4.34659 30.751 4.94954C30.5032 7.76892 30.116 12.7493 30.116 16.3886C30.116 20.3691 30.5794 25.9574 30.8174 28.5692C30.8359 28.7726 30.6761 28.9456 30.4756 28.9456H30.4754H24.4382H24.4379C24.2421 28.9456 24.0853 28.7798 24.0979 28.5819C24.2638 25.9855 24.5907 20.3705 24.5907 16.3886C24.5907 13.8188 24.4546 10.5699 24.3135 7.89166ZM31.1203 16.3886C31.1203 13.8235 31.3159 10.5693 31.5181 7.89166H31.9993C32.3692 7.89166 32.669 8.1915 32.669 8.56137V18.7744H34.2596V3.74783C34.2596 3.37796 34.5594 3.07812 34.9293 3.07812H47.6956C48.0655 3.07812 48.3653 3.37796 48.3653 3.74783V18.7744H48.5746C49.3143 18.7744 49.914 19.3741 49.914 20.1138V31.9593C49.914 32.6991 49.3143 33.2987 48.5746 33.2987H32.669H23.4605C22.7208 33.2987 22.1211 32.6991 22.1211 31.9593V8.56137C22.1211 8.1915 22.4209 7.89166 22.7908 7.89166H23.3076C23.4491 10.5703 23.5861 13.8254 23.5861 16.3886C23.5861 20.3344 23.2614 25.9198 23.0954 28.5179C23.0459 29.2934 23.6608 29.9502 24.4379 29.9502H30.4754C31.2685 29.9502 31.8896 29.2679 31.8176 28.478C31.5793 25.8639 31.1203 20.3177 31.1203 16.3886ZM46.5445 5.33839H36.0803V21.6207H46.5445V5.33839ZM65.5148 33.2987H50.7241C50.9667 32.9102 51.1069 32.4511 51.1069 31.9593V23.4646H63.6324V9.75318H49.5582V7.8498H64.5513C64.8666 7.8498 65.1223 8.1023 65.1223 8.41377V21.0677H65.5148C66.1455 21.0677 66.6567 21.5727 66.6567 22.1957V32.1708C66.6567 32.7937 66.1455 33.2987 65.5148 33.2987Z" fill="#8E8E8E"/>
<path fill-rule="evenodd" clip-rule="evenodd" d="M24.3135 7.89166H24.3138C24.2546 6.76834 24.1946 5.74544 24.1434 4.91517C24.1071 4.3264 24.574 3.83155 25.1571 3.83155H29.7345C30.3298 3.83155 30.804 4.34659 30.751 4.94954C30.5032 7.76892 30.116 12.7493 30.116 16.3886C30.116 20.3691 30.5794 25.9574 30.8174 28.5692C30.8359 28.7726 30.6761 28.9456 30.4756 28.9456H30.4754H24.4382H24.4379C24.2421 28.9456 24.0853 28.7798 24.0979 28.5819C24.2638 25.9855 24.5907 20.3705 24.5907 16.3886C24.5907 13.8188 24.4546 10.5699 24.3135 7.89166ZM31.1203 16.3886C31.1203 13.8235 31.3159 10.5693 31.5181 7.89166H31.9993C32.3692 7.89166 32.669 8.1915 32.669 8.56137V18.7744H34.2596V3.74783C34.2596 3.37796 34.5594 3.07812 34.9293 3.07812H47.6956C48.0655 3.07812 48.3653 3.37796 48.3653 3.74783V18.7744H48.5746C49.3143 18.7744 49.914 19.3741 49.914 20.1138V31.9593C49.914 32.6991 49.3143 33.2987 48.5746 33.2987H32.669H23.4605C22.7208 33.2987 22.1211 32.6991 22.1211 31.9593V8.56137C22.1211 8.1915 22.4209 7.89166 22.7908 7.89166H23.3076C23.4491 10.5703 23.5861 13.8254 23.5861 16.3886C23.5861 20.3344 23.2614 25.9198 23.0954 28.5179C23.0459 29.2934 23.6608 29.9502 24.4379 29.9502H30.4754C31.2685 29.9502 31.8896 29.2679 31.8176 28.478C31.5793 25.8639 31.1203 20.3177 31.1203 16.3886ZM46.5445 5.33839H36.0803V21.6207H46.5445V5.33839ZM65.5148 33.2987H50.7241C50.9667 32.9102 51.1069 32.4511 51.1069 31.9593V23.4646H63.6324V9.75318H49.5582V7.8498H64.5513C64.8666 7.8498 65.1223 8.1023 65.1223 8.41377V21.0677H65.5148C66.1455 21.0677 66.6567 21.5727 66.6567 22.1957V32.1708C66.6567 32.7937 66.1455 33.2987 65.5148 33.2987Z" fill="#4C4C4C"/>
</svg>